<?xml version="1.0" encoding="utf-8"?>
<!-- Generator: Adobe Illustrator 24.0.1, SVG Export Plug-In . SVG Version: 6.00 Build 0)  -->
<svg version="1.1" id="Layer_1" xmlns="http://www.w3.org/2000/svg" xmlns:xlink="http://www.w3.org/1999/xlink" x="0px" y="0px"
	 viewBox="0 0 24 24" style="enable-background:new 0 0 24 24;" xml:space="preserve">
<style type="text/css">
	.st0{clip-path:url(#SVGID_2_);}
</style>
<g>
	<defs>
		<rect id="SVGID_1_" width="24" height="24"/>
	</defs>
	<clipPath id="SVGID_2_">
		<use xlink:href="#SVGID_1_"  style="overflow:visible;"/>
	</clipPath>
	<path class="st0" d="M18,14v1.29c0,1.5-1.22,2.71-2.71,2.71H14v2h1.29c2.6,0,4.71-2.11,4.71-4.71V14H18z"/>
	<path class="st0" d="M14,6h1.29C16.78,6,18,7.22,18,8.71V10h2V8.71C20,6.11,17.89,4,15.29,4H14V6z"/>
	<path class="st0" d="M6,10V8.71C6,7.22,7.22,6,8.71,6H10V4H8.71C6.11,4,4,6.11,4,8.71V10H6z"/>
	<path class="st0" d="M10,18H8.71C7.22,18,6,16.78,6,15.29V14H4v1.29C4,17.89,6.11,20,8.71,20H10V18z"/>
</g>
</svg>
