<?xml version="1.0" encoding="utf-8"?>
<!-- Generator: Adobe Illustrator 24.0.1, SVG Export Plug-In . SVG Version: 6.00 Build 0)  -->
<svg version="1.1" id="Layer_1" xmlns="http://www.w3.org/2000/svg" xmlns:xlink="http://www.w3.org/1999/xlink" x="0px" y="0px"
	 viewBox="0 0 24 24" style="enable-background:new 0 0 24 24;" xml:space="preserve">
<style type="text/css">
	.st0{clip-path:url(#SVGID_2_);}
</style>
<g>
	<defs>
		<rect id="SVGID_1_" width="24" height="24"/>
	</defs>
	<clipPath id="SVGID_2_">
		<use xlink:href="#SVGID_1_"  style="overflow:visible;"/>
	</clipPath>
	<path class="st0" d="M9.42,6.59C10.21,6.21,11.09,6,12,6c1.6,0,3.11,0.62,4.24,1.76C17.38,8.89,18,10.4,18,12
		c0,0.91-0.21,1.79-0.59,2.58l1.48,1.47c1.81-3.07,1.41-7.08-1.23-9.71C16.09,4.78,14.05,4,12,4c-1.41,0-2.81,0.38-4.06,1.11
		L9.42,6.59z"/>
	<path class="st0" d="M14.58,17.41C13.79,17.79,12.91,18,12,18c-1.6,0-3.11-0.62-4.24-1.76C6.62,15.11,6,13.6,6,12
		c0-0.91,0.21-1.79,0.59-2.58L5.11,7.94c-1.81,3.07-1.41,7.08,1.23,9.71C7.9,19.22,9.95,20,12,20c1.41,0,2.81-0.38,4.06-1.11
		L14.58,17.41z"/>
	<polygon class="st0" points="18.89,17.47 15.35,13.94 16.77,12.52 18.89,14.65 21.01,12.52 22.42,13.94 	"/>
	<polygon class="st0" points="2.99,11.48 1.58,10.06 5.11,6.53 8.65,10.06 7.23,11.48 5.11,9.35 	"/>
</g>
</svg>
